<svg width="24" height="24" viewBox="0 0 24 24" fill="none" xmlns="http://www.w3.org/2000/svg">
<path d="M3 2.25C2.58579 2.25 2.25 2.58579 2.25 3C2.25 3.41421 2.58579 3.75 3 3.75V2.25ZM20.7324 7.13511L19.9999 6.97378L20.7324 7.13511ZM5.5 6.67H19.7558V5.17H5.5V6.67ZM19.9999 6.97378L18.9591 11.6991L20.424 12.0218L21.4648 7.29644L19.9999 6.97378ZM15.7852 14.25H9.54506V15.75H15.7852V14.25ZM7.32515 12.3667L6.23997 5.79776L4.76003 6.04224L5.84521 12.6112L7.32515 12.3667ZM6.20954 5.67701L5.67256 4.10902L4.25347 4.59501L4.79046 6.16299L6.20954 5.67701ZM3.0709 2.25H3V3.75H3.0709V2.25ZM5.67256 4.10902C5.29174 2.99703 4.24629 2.25 3.0709 2.25V3.75C3.60517 3.75 4.08037 4.08956 4.25347 4.59501L5.67256 4.10902ZM9.54506 14.25C8.44396 14.25 7.50462 13.4531 7.32515 12.3667L5.84521 12.6112C6.14432 14.4218 7.70989 15.75 9.54506 15.75V14.25ZM18.9591 11.6991C18.6309 13.1889 17.3107 14.25 15.7852 14.25V15.75C18.0148 15.75 19.9444 14.1992 20.424 12.0218L18.9591 11.6991ZM19.7558 6.67C19.9155 6.67 20.0343 6.81777 19.9999 6.97378L21.4648 7.29644C21.7053 6.2044 20.874 5.17 19.7558 5.17V6.67Z" fill="#311F09"/>
<path d="M18 18H7.5C6.67157 18 6 17.3284 6 16.5V16.5C6 15.6716 6.67157 15 7.5 15H10" stroke="#311F09" stroke-width="1.5" stroke-linecap="round"/>
<circle cx="8" cy="20" r="1.25" stroke="#311F09" stroke-width="1.5"/>
<circle cx="16" cy="20" r="1.25" stroke="#311F09" stroke-width="1.5"/>
</svg>
