<svg width="164" height="25" viewBox="0 0 164 25" fill="none" xmlns="http://www.w3.org/2000/svg">
<path d="M10.9261 5.23748C11.4542 3.61215 13.7536 3.61215 14.2817 5.23748L14.9804 7.38771C15.2166 8.11458 15.8939 8.60671 16.6582 8.60671H18.9191C20.628 8.60671 21.3386 10.7936 19.956 11.7981L18.1269 13.127C17.5086 13.5762 17.2499 14.3725 17.4861 15.0994L18.1847 17.2496C18.7128 18.8749 16.8525 20.2265 15.47 19.222L13.6409 17.8931C13.0226 17.4438 12.1853 17.4438 11.567 17.8931L9.73789 19.222C8.3553 20.2265 6.49504 18.8749 7.02314 17.2496L7.7218 15.0994C7.95797 14.3725 7.69924 13.5762 7.08093 13.127L5.25184 11.7981C3.86925 10.7936 4.57981 8.60671 6.28878 8.60671H8.54966C9.31394 8.60671 9.99129 8.11458 10.2275 7.38771L10.9261 5.23748Z" fill="#FF8A00"/>
<path d="M45.6241 5.23748C46.1522 3.61215 48.4516 3.61215 48.9797 5.23748L49.6784 7.38771C49.9146 8.11458 50.5919 8.60671 51.3562 8.60671H53.6171C55.326 8.60671 56.0366 10.7936 54.654 11.7981L52.8249 13.127C52.2066 13.5762 51.9479 14.3725 52.184 15.0994L52.8827 17.2496C53.4108 18.8749 51.5505 20.2265 50.168 19.222L48.3389 17.8931C47.7205 17.4438 46.8833 17.4438 46.265 17.8931L44.4359 19.222C43.0533 20.2265 41.193 18.8749 41.7211 17.2496L42.4198 15.0994C42.656 14.3725 42.3972 13.5762 41.7789 13.127L39.9498 11.7981C38.5672 10.7936 39.2778 8.60671 40.9868 8.60671H43.2477C44.0119 8.60671 44.6893 8.11458 44.9255 7.38771L45.6241 5.23748Z" fill="#FF8A00"/>
<path d="M80.3224 5.23748C80.8505 3.61215 83.1499 3.61215 83.678 5.23748L84.3766 7.38771C84.6128 8.11458 85.2901 8.60671 86.0544 8.60671H88.3153C90.0243 8.60671 90.7348 10.7936 89.3522 11.7981L87.5232 13.127C86.9048 13.5762 86.6461 14.3725 86.8823 15.0994L87.5809 17.2496C88.109 18.8749 86.2488 20.2265 84.8662 19.222L83.0371 17.8931C82.4188 17.4438 81.5815 17.4438 80.9632 17.8931L79.1341 19.222C77.7515 20.2265 75.8913 18.8749 76.4194 17.2496L77.118 15.0994C77.3542 14.3725 77.0955 13.5762 76.4772 13.127L74.6481 11.7981C73.2655 10.7936 73.976 8.60671 75.685 8.60671H77.9459C78.7102 8.60671 79.3875 8.11458 79.6237 7.38771L80.3224 5.23748Z" fill="#FF8A00"/>
<path d="M115.02 5.23748C115.548 3.61215 117.848 3.61215 118.376 5.23748L119.075 7.38771C119.311 8.11458 119.988 8.60671 120.752 8.60671H123.013C124.722 8.60671 125.433 10.7936 124.05 11.7981L122.221 13.127C121.603 13.5762 121.344 14.3725 121.58 15.0994L122.279 17.2496C122.807 18.8749 120.947 20.2265 119.564 19.222L117.735 17.8931C117.117 17.4438 116.28 17.4438 115.661 17.8931L113.832 19.222C112.45 20.2265 110.589 18.8749 111.117 17.2496L111.816 15.0994C112.052 14.3725 111.793 13.5762 111.175 13.127L109.346 11.7981C107.963 10.7936 108.674 8.60671 110.383 8.60671H112.644C113.408 8.60671 114.086 8.11458 114.322 7.38771L115.02 5.23748Z" fill="#FF8A00"/>
<path d="M149.719 5.23748C150.247 3.61215 152.546 3.61215 153.074 5.23748L153.773 7.38771C154.009 8.11458 154.686 8.60671 155.451 8.60671H157.712C159.421 8.60671 160.131 10.7936 158.748 11.7981L156.919 13.127C156.301 13.5762 156.042 14.3725 156.279 15.0994L156.977 17.2496C157.505 18.8749 155.645 20.2265 154.262 19.222L152.433 17.8931C151.815 17.4438 150.978 17.4438 150.359 17.8931L148.53 19.222C147.148 20.2265 145.288 18.8749 145.816 17.2496L146.514 15.0994C146.75 14.3725 146.492 13.5762 145.873 13.127L144.044 11.7981C142.662 10.7936 143.372 8.60671 145.081 8.60671H147.342C148.106 8.60671 148.784 8.11458 149.02 7.38771L149.719 5.23748Z" fill="white"/>
</svg>
