<svg width="132" height="51" viewBox="0 0 132 51" fill="none" xmlns="http://www.w3.org/2000/svg">
<path d="M73.382 21.228C74.4087 21.228 75.3093 21.4287 76.084 21.83C76.868 22.2313 77.47 22.8053 77.89 23.552C78.3193 24.2893 78.534 25.148 78.534 26.128C78.534 27.108 78.3193 27.9667 77.89 28.704C77.47 29.432 76.868 29.9967 76.084 30.398C75.3093 30.7993 74.4087 31 73.382 31H69.966V21.228H73.382ZM73.312 29.334C74.3387 29.334 75.132 29.054 75.692 28.494C76.252 27.934 76.532 27.1453 76.532 26.128C76.532 25.1107 76.252 24.3173 75.692 23.748C75.132 23.1693 74.3387 22.88 73.312 22.88H71.926V29.334H73.312ZM87.2112 26.954C87.2112 27.234 87.1925 27.486 87.1552 27.71H81.4852C81.5318 28.27 81.7278 28.7087 82.0732 29.026C82.4185 29.3433 82.8432 29.502 83.3472 29.502C84.0752 29.502 84.5932 29.1893 84.9012 28.564H87.0152C86.7912 29.3107 86.3618 29.9267 85.7272 30.412C85.0925 30.888 84.3132 31.126 83.3892 31.126C82.6425 31.126 81.9705 30.9627 81.3732 30.636C80.7852 30.3 80.3232 29.8287 79.9872 29.222C79.6605 28.6153 79.4972 27.9153 79.4972 27.122C79.4972 26.3193 79.6605 25.6147 79.9872 25.008C80.3138 24.4013 80.7712 23.9347 81.3592 23.608C81.9472 23.2813 82.6238 23.118 83.3892 23.118C84.1265 23.118 84.7845 23.2767 85.3632 23.594C85.9512 23.9113 86.4038 24.364 86.7212 24.952C87.0478 25.5307 87.2112 26.198 87.2112 26.954ZM85.1812 26.394C85.1718 25.89 84.9898 25.4887 84.6352 25.19C84.2805 24.882 83.8465 24.728 83.3332 24.728C82.8478 24.728 82.4372 24.8773 82.1012 25.176C81.7745 25.4653 81.5738 25.8713 81.4992 26.394H85.1812ZM90.6018 20.64V31H88.6418V20.64H90.6018ZM93.5323 22.32C93.1869 22.32 92.8976 22.2127 92.6643 21.998C92.4403 21.774 92.3283 21.4987 92.3283 21.172C92.3283 20.8453 92.4403 20.5747 92.6643 20.36C92.8976 20.136 93.1869 20.024 93.5323 20.024C93.8776 20.024 94.1623 20.136 94.3863 20.36C94.6196 20.5747 94.7363 20.8453 94.7363 21.172C94.7363 21.4987 94.6196 21.774 94.3863 21.998C94.1623 22.2127 93.8776 22.32 93.5323 22.32ZM94.4983 23.244V31H92.5383V23.244H94.4983ZM98.2268 29.39H101.685V31H96.0008V29.418L99.3888 24.854H96.0148V23.244H101.643V24.826L98.2268 29.39ZM104.196 22.32C103.851 22.32 103.562 22.2127 103.328 21.998C103.104 21.774 102.992 21.4987 102.992 21.172C102.992 20.8453 103.104 20.5747 103.328 20.36C103.562 20.136 103.851 20.024 104.196 20.024C104.542 20.024 104.826 20.136 105.05 20.36C105.284 20.5747 105.4 20.8453 105.4 21.172C105.4 21.4987 105.284 21.774 105.05 21.998C104.826 22.2127 104.542 22.32 104.196 22.32ZM105.162 23.244V31H103.202V23.244H105.162Z" fill="#311F09"/>
<path d="M110.543 31.126C109.796 31.126 109.124 30.9627 108.527 30.636C107.929 30.3 107.458 29.8287 107.113 29.222C106.777 28.6153 106.609 27.9153 106.609 27.122C106.609 26.3287 106.781 25.6287 107.127 25.022C107.481 24.4153 107.962 23.9487 108.569 23.622C109.175 23.286 109.852 23.118 110.599 23.118C111.345 23.118 112.022 23.286 112.629 23.622C113.235 23.9487 113.711 24.4153 114.057 25.022C114.411 25.6287 114.589 26.3287 114.589 27.122C114.589 27.9153 114.407 28.6153 114.043 29.222C113.688 29.8287 113.203 30.3 112.587 30.636C111.98 30.9627 111.299 31.126 110.543 31.126ZM110.543 29.418C110.897 29.418 111.229 29.334 111.537 29.166C111.854 28.9887 112.106 28.7273 112.293 28.382C112.479 28.0367 112.573 27.6167 112.573 27.122C112.573 26.3847 112.377 25.82 111.985 25.428C111.602 25.0267 111.131 24.826 110.571 24.826C110.011 24.826 109.539 25.0267 109.157 25.428C108.783 25.82 108.597 26.3847 108.597 27.122C108.597 27.8593 108.779 28.4287 109.143 28.83C109.516 29.222 109.983 29.418 110.543 29.418ZM118.995 31.126C118.36 31.126 117.791 31.014 117.287 30.79C116.783 30.5567 116.381 30.244 116.083 29.852C115.793 29.46 115.635 29.026 115.607 28.55H117.581C117.618 28.8487 117.763 29.096 118.015 29.292C118.276 29.488 118.598 29.586 118.981 29.586C119.354 29.586 119.643 29.5113 119.849 29.362C120.063 29.2127 120.171 29.0213 120.171 28.788C120.171 28.536 120.04 28.3493 119.779 28.228C119.527 28.0973 119.121 27.9573 118.561 27.808C117.982 27.668 117.506 27.5233 117.133 27.374C116.769 27.2247 116.451 26.996 116.181 26.688C115.919 26.38 115.789 25.9647 115.789 25.442C115.789 25.0127 115.91 24.6207 116.153 24.266C116.405 23.9113 116.759 23.6313 117.217 23.426C117.683 23.2207 118.229 23.118 118.855 23.118C119.779 23.118 120.516 23.3513 121.067 23.818C121.617 24.2753 121.921 24.896 121.977 25.68H120.101C120.073 25.372 119.942 25.1293 119.709 24.952C119.485 24.7653 119.181 24.672 118.799 24.672C118.444 24.672 118.169 24.7373 117.973 24.868C117.786 24.9987 117.693 25.1807 117.693 25.414C117.693 25.6753 117.823 25.876 118.085 26.016C118.346 26.1467 118.752 26.282 119.303 26.422C119.863 26.562 120.325 26.7067 120.689 26.856C121.053 27.0053 121.365 27.2387 121.627 27.556C121.897 27.864 122.037 28.2747 122.047 28.788C122.047 29.236 121.921 29.6373 121.669 29.992C121.426 30.3467 121.071 30.6267 120.605 30.832C120.147 31.028 119.611 31.126 118.995 31.126ZM127.099 31.126C126.353 31.126 125.681 30.9627 125.083 30.636C124.486 30.3 124.015 29.8287 123.669 29.222C123.333 28.6153 123.165 27.9153 123.165 27.122C123.165 26.3287 123.338 25.6287 123.683 25.022C124.038 24.4153 124.519 23.9487 125.125 23.622C125.732 23.286 126.409 23.118 127.155 23.118C127.902 23.118 128.579 23.286 129.185 23.622C129.792 23.9487 130.268 24.4153 130.613 25.022C130.968 25.6287 131.145 26.3287 131.145 27.122C131.145 27.9153 130.963 28.6153 130.599 29.222C130.245 29.8287 129.759 30.3 129.143 30.636C128.537 30.9627 127.855 31.126 127.099 31.126ZM127.099 29.418C127.454 29.418 127.785 29.334 128.093 29.166C128.411 28.9887 128.663 28.7273 128.849 28.382C129.036 28.0367 129.129 27.6167 129.129 27.122C129.129 26.3847 128.933 25.82 128.541 25.428C128.159 25.0267 127.687 24.826 127.127 24.826C126.567 24.826 126.096 25.0267 125.713 25.428C125.34 25.82 125.153 26.3847 125.153 27.122C125.153 27.8593 125.335 28.4287 125.699 28.83C126.073 29.222 126.539 29.418 127.099 29.418Z" fill="#FF8A00"/>
<circle cx="25.5" cy="25.5" r="25.5" fill="#FF8A00"/>
<path d="M25.825 16.55C27.6583 16.55 29.2667 16.9083 30.65 17.625C32.05 18.3417 33.125 19.3667 33.875 20.7C34.6417 22.0167 35.025 23.55 35.025 25.3C35.025 27.05 34.6417 28.5833 33.875 29.9C33.125 31.2 32.05 32.2083 30.65 32.925C29.2667 33.6417 27.6583 34 25.825 34H19.725V16.55H25.825ZM25.7 31.025C27.5333 31.025 28.95 30.525 29.95 29.525C30.95 28.525 31.45 27.1167 31.45 25.3C31.45 23.4833 30.95 22.0667 29.95 21.05C28.95 20.0167 27.5333 19.5 25.7 19.5H23.225V31.025H25.7Z" fill="white"/>
</svg>
