<svg width="132" height="52" viewBox="0 0 132 52" fill="none" xmlns="http://www.w3.org/2000/svg">
<path d="M73.382 21.7612C74.4087 21.7612 75.3093 21.9619 76.084 22.3632C76.868 22.7645 77.47 23.3385 77.89 24.0852C78.3193 24.8225 78.534 25.6812 78.534 26.6612C78.534 27.6412 78.3193 28.4999 77.89 29.2372C77.47 29.9652 76.868 30.5299 76.084 30.9312C75.3093 31.3325 74.4087 31.5332 73.382 31.5332H69.966V21.7612H73.382ZM73.312 29.8672C74.3387 29.8672 75.132 29.5872 75.692 29.0272C76.252 28.4672 76.532 27.6785 76.532 26.6612C76.532 25.6439 76.252 24.8505 75.692 24.2812C75.132 23.7025 74.3387 23.4132 73.312 23.4132H71.926V29.8672H73.312ZM87.2112 27.4872C87.2112 27.7672 87.1925 28.0192 87.1552 28.2432H81.4852C81.5318 28.8032 81.7278 29.2419 82.0732 29.5592C82.4185 29.8765 82.8432 30.0352 83.3472 30.0352C84.0752 30.0352 84.5932 29.7225 84.9012 29.0972H87.0152C86.7912 29.8439 86.3618 30.4599 85.7272 30.9452C85.0925 31.4212 84.3132 31.6592 83.3892 31.6592C82.6425 31.6592 81.9705 31.4959 81.3732 31.1692C80.7852 30.8332 80.3232 30.3619 79.9872 29.7552C79.6605 29.1485 79.4972 28.4485 79.4972 27.6552C79.4972 26.8525 79.6605 26.1479 79.9872 25.5412C80.3138 24.9345 80.7712 24.4679 81.3592 24.1412C81.9472 23.8145 82.6238 23.6512 83.3892 23.6512C84.1265 23.6512 84.7845 23.8099 85.3632 24.1272C85.9512 24.4445 86.4038 24.8972 86.7212 25.4852C87.0478 26.0639 87.2112 26.7312 87.2112 27.4872ZM85.1812 26.9272C85.1718 26.4232 84.9898 26.0219 84.6352 25.7232C84.2805 25.4152 83.8465 25.2612 83.3332 25.2612C82.8478 25.2612 82.4372 25.4105 82.1012 25.7092C81.7745 25.9985 81.5738 26.4045 81.4992 26.9272H85.1812ZM90.6018 21.1732V31.5332H88.6418V21.1732H90.6018ZM93.5323 22.8532C93.1869 22.8532 92.8976 22.7459 92.6643 22.5312C92.4403 22.3072 92.3283 22.0319 92.3283 21.7052C92.3283 21.3785 92.4403 21.1079 92.6643 20.8932C92.8976 20.6692 93.1869 20.5572 93.5323 20.5572C93.8776 20.5572 94.1623 20.6692 94.3863 20.8932C94.6196 21.1079 94.7363 21.3785 94.7363 21.7052C94.7363 22.0319 94.6196 22.3072 94.3863 22.5312C94.1623 22.7459 93.8776 22.8532 93.5323 22.8532ZM94.4983 23.7772V31.5332H92.5383V23.7772H94.4983ZM98.2268 29.9232H101.685V31.5332H96.0008V29.9512L99.3888 25.3872H96.0148V23.7772H101.643V25.3592L98.2268 29.9232ZM104.196 22.8532C103.851 22.8532 103.562 22.7459 103.328 22.5312C103.104 22.3072 102.992 22.0319 102.992 21.7052C102.992 21.3785 103.104 21.1079 103.328 20.8932C103.562 20.6692 103.851 20.5572 104.196 20.5572C104.542 20.5572 104.826 20.6692 105.05 20.8932C105.284 21.1079 105.4 21.3785 105.4 21.7052C105.4 22.0319 105.284 22.3072 105.05 22.5312C104.826 22.7459 104.542 22.8532 104.196 22.8532ZM105.162 23.7772V31.5332H103.202V23.7772H105.162Z" fill="white"/>
<path d="M110.543 31.6592C109.796 31.6592 109.124 31.4959 108.527 31.1692C107.929 30.8332 107.458 30.3619 107.113 29.7552C106.777 29.1485 106.609 28.4485 106.609 27.6552C106.609 26.8619 106.781 26.1619 107.127 25.5552C107.481 24.9485 107.962 24.4819 108.569 24.1552C109.175 23.8192 109.852 23.6512 110.599 23.6512C111.345 23.6512 112.022 23.8192 112.629 24.1552C113.235 24.4819 113.711 24.9485 114.057 25.5552C114.411 26.1619 114.589 26.8619 114.589 27.6552C114.589 28.4485 114.407 29.1485 114.043 29.7552C113.688 30.3619 113.203 30.8332 112.587 31.1692C111.98 31.4959 111.299 31.6592 110.543 31.6592ZM110.543 29.9512C110.897 29.9512 111.229 29.8672 111.537 29.6992C111.854 29.5219 112.106 29.2605 112.293 28.9152C112.479 28.5699 112.573 28.1499 112.573 27.6552C112.573 26.9179 112.377 26.3532 111.985 25.9612C111.602 25.5599 111.131 25.3592 110.571 25.3592C110.011 25.3592 109.539 25.5599 109.157 25.9612C108.783 26.3532 108.597 26.9179 108.597 27.6552C108.597 28.3925 108.779 28.9619 109.143 29.3632C109.516 29.7552 109.983 29.9512 110.543 29.9512ZM118.995 31.6592C118.36 31.6592 117.791 31.5472 117.287 31.3232C116.783 31.0899 116.381 30.7772 116.083 30.3852C115.793 29.9932 115.635 29.5592 115.607 29.0832H117.581C117.618 29.3819 117.763 29.6292 118.015 29.8252C118.276 30.0212 118.598 30.1192 118.981 30.1192C119.354 30.1192 119.643 30.0445 119.849 29.8952C120.063 29.7459 120.171 29.5545 120.171 29.3212C120.171 29.0692 120.04 28.8825 119.779 28.7612C119.527 28.6305 119.121 28.4905 118.561 28.3412C117.982 28.2012 117.506 28.0565 117.133 27.9072C116.769 27.7579 116.451 27.5292 116.181 27.2212C115.919 26.9132 115.789 26.4979 115.789 25.9752C115.789 25.5459 115.91 25.1539 116.153 24.7992C116.405 24.4445 116.759 24.1645 117.217 23.9592C117.683 23.7539 118.229 23.6512 118.855 23.6512C119.779 23.6512 120.516 23.8845 121.067 24.3512C121.617 24.8085 121.921 25.4292 121.977 26.2132H120.101C120.073 25.9052 119.942 25.6625 119.709 25.4852C119.485 25.2985 119.181 25.2052 118.799 25.2052C118.444 25.2052 118.169 25.2705 117.973 25.4012C117.786 25.5319 117.693 25.7139 117.693 25.9472C117.693 26.2085 117.823 26.4092 118.085 26.5492C118.346 26.6799 118.752 26.8152 119.303 26.9552C119.863 27.0952 120.325 27.2399 120.689 27.3892C121.053 27.5385 121.365 27.7719 121.627 28.0892C121.897 28.3972 122.037 28.8079 122.047 29.3212C122.047 29.7692 121.921 30.1705 121.669 30.5252C121.426 30.8799 121.071 31.1599 120.605 31.3652C120.147 31.5612 119.611 31.6592 118.995 31.6592ZM127.099 31.6592C126.353 31.6592 125.681 31.4959 125.083 31.1692C124.486 30.8332 124.015 30.3619 123.669 29.7552C123.333 29.1485 123.165 28.4485 123.165 27.6552C123.165 26.8619 123.338 26.1619 123.683 25.5552C124.038 24.9485 124.519 24.4819 125.125 24.1552C125.732 23.8192 126.409 23.6512 127.155 23.6512C127.902 23.6512 128.579 23.8192 129.185 24.1552C129.792 24.4819 130.268 24.9485 130.613 25.5552C130.968 26.1619 131.145 26.8619 131.145 27.6552C131.145 28.4485 130.963 29.1485 130.599 29.7552C130.245 30.3619 129.759 30.8332 129.143 31.1692C128.537 31.4959 127.855 31.6592 127.099 31.6592ZM127.099 29.9512C127.454 29.9512 127.785 29.8672 128.093 29.6992C128.411 29.5219 128.663 29.2605 128.849 28.9152C129.036 28.5699 129.129 28.1499 129.129 27.6552C129.129 26.9179 128.933 26.3532 128.541 25.9612C128.159 25.5599 127.687 25.3592 127.127 25.3592C126.567 25.3592 126.096 25.5599 125.713 25.9612C125.34 26.3532 125.153 26.9179 125.153 27.6552C125.153 28.3925 125.335 28.9619 125.699 29.3632C126.073 29.7552 126.539 29.9512 127.099 29.9512Z" fill="#FF8A00"/>
<circle cx="25.5" cy="26.0332" r="25.5" fill="#FF8A00"/>
<path d="M25.825 17.0832C27.6583 17.0832 29.2667 17.4415 30.65 18.1582C32.05 18.8749 33.125 19.8999 33.875 21.2332C34.6417 22.5499 35.025 24.0832 35.025 25.8332C35.025 27.5832 34.6417 29.1165 33.875 30.4332C33.125 31.7332 32.05 32.7415 30.65 33.4582C29.2667 34.1749 27.6583 34.5332 25.825 34.5332H19.725V17.0832H25.825ZM25.7 31.5582C27.5333 31.5582 28.95 31.0582 29.95 30.0582C30.95 29.0582 31.45 27.6499 31.45 25.8332C31.45 24.0165 30.95 22.5999 29.95 21.5832C28.95 20.5499 27.5333 20.0332 25.7 20.0332H23.225V31.5582H25.7Z" fill="white"/>
</svg>
