<svg width="1380" height="1214" viewBox="0 0 1380 1214" fill="none" xmlns="http://www.w3.org/2000/svg">
<circle r="49" transform="matrix(1 0 0 -1 104 49.5332)" fill="#CEEFC8"/>
<circle r="49" transform="matrix(1 0 0 -1 971 446.533)" fill="#F56363" fill-opacity="0.1"/>
<circle r="37" transform="matrix(1 0 0 -1 1360 570.533)" fill="#F3A7FF" fill-opacity="0.53"/>
<circle opacity="0.1" r="37" transform="matrix(1 0 0 -1 515 772.533)" fill="#F3A7FF"/>
<circle r="22" transform="matrix(1 0 0 -1 308 258.533)" fill="#3FBAFF" fill-opacity="0.1"/>
<circle r="22" transform="matrix(1 0 0 -1 1257 120.533)" fill="#C4C4C4" fill-opacity="0.1"/>
<circle r="22" transform="matrix(1 0 0 -1 1301 1191.53)" fill="#C4C4C4" fill-opacity="0.1"/>
<circle r="32.784" transform="matrix(1 0 0 -1 33.0001 652.533)" fill="#FF8A00" fill-opacity="0.51"/>
<circle opacity="0.2" r="22" transform="matrix(1 0 0 -1 237 1122.53)" fill="#FF8A00"/>
</svg>
