<svg width="17" height="16" viewBox="0 0 17 16" fill="none" xmlns="http://www.w3.org/2000/svg">
<path d="M6.92612 1.23748C7.45422 -0.387848 9.75363 -0.387847 10.2817 1.23748L10.9804 3.38771C11.2166 4.11458 11.8939 4.60671 12.6582 4.60671H14.9191C16.628 4.60671 17.3386 6.79357 15.956 7.79808L14.1269 9.127C13.5086 9.57623 13.2499 10.3725 13.4861 11.0994L14.1847 13.2496C14.7128 14.8749 12.8525 16.2265 11.47 15.222L9.64086 13.8931C9.02255 13.4438 8.1853 13.4438 7.56698 13.8931L5.73789 15.222C4.3553 16.2265 2.49504 14.8749 3.02314 13.2496L3.7218 11.0994C3.95797 10.3725 3.69924 9.57623 3.08093 9.127L1.25184 7.79808C-0.13075 6.79357 0.579805 4.60671 2.28878 4.60671H4.54966C5.31394 4.60671 5.99129 4.11458 6.22747 3.38771L6.92612 1.23748Z" fill="#FF8A00"/>
</svg>
